<?xml version="1.0" standalone="no"?>
<!DOCTYPE svg PUBLIC "-//W3C//DTD SVG 20010904//EN"
 "http://www.w3.org/TR/2001/REC-SVG-20010904/DTD/svg10.dtd">
<svg version="1.0" xmlns="http://www.w3.org/2000/svg"
 width="700.000000pt" height="700.000000pt" viewBox="0 0 700.000000 700.000000"
 preserveAspectRatio="xMidYMid meet">
<metadata>
Created by potrace 1.11, written by Peter Selinger 2001-2013
</metadata>
<g transform="translate(0.000000,700.000000) scale(0.100000,-0.100000)"
fill="#000000" stroke="none">
<path d="M3058 6715 c-2 -1 -89 -6 -194 -9 -106 -4 -209 -9 -230 -11 -22 -2
-86 -6 -144 -10 -191 -12 -364 -24 -413 -30 -31 -3 -145 -13 -236 -20 -47 -4
-117 -11 -206 -20 -54 -6 -103 -11 -205 -20 -36 -4 -76 -8 -90 -10 -14 -2 -54
-6 -90 -10 -36 -4 -78 -9 -95 -11 -16 -2 -57 -6 -90 -9 -33 -4 -66 -8 -73 -11
-11 -3 -13 -223 -9 -1266 3 -695 7 -1288 10 -1318 3 -30 9 -86 12 -125 4 -38
8 -81 10 -95 1 -14 6 -56 9 -95 13 -128 23 -195 61 -410 25 -136 140 -545 175
-620 5 -11 23 -56 40 -100 97 -248 246 -518 413 -745 101 -138 163 -208 326
-370 124 -123 187 -180 356 -319 69 -56 310 -224 495 -343 78 -51 344 -209
426 -254 38 -20 77 -43 88 -50 16 -11 29 -6 93 32 41 24 76 44 79 44 2 0 28
16 58 35 30 19 57 35 60 35 8 0 266 159 386 238 305 201 527 378 740 592 380
380 634 796 809 1326 46 140 113 385 126 464 3 19 8 42 10 50 2 8 6 32 10 54
3 21 7 41 9 45 3 4 8 34 11 66 4 33 9 69 11 80 2 11 6 45 10 75 3 30 7 66 9
80 2 14 6 54 10 90 3 36 8 81 10 100 16 133 20 469 20 1515 l0 1190 -145 16
c-165 19 -236 27 -317 35 -32 3 -69 7 -83 9 -14 2 -54 6 -90 9 -115 10 -284
26 -325 31 -22 2 -80 7 -130 10 -49 4 -101 8 -115 10 -14 2 -77 7 -140 10 -63
4 -131 8 -150 10 -19 2 -98 6 -175 10 -77 4 -160 9 -185 11 -51 5 -947 13
-952 9z m702 -230 c151 -3 293 -8 315 -10 22 -2 92 -6 155 -10 63 -4 138 -8
165 -10 28 -2 97 -7 154 -10 57 -4 111 -8 120 -10 9 -1 62 -6 119 -10 56 -3
112 -8 123 -10 11 -2 62 -7 112 -10 51 -3 101 -7 112 -9 11 -2 56 -7 100 -11
44 -4 94 -8 110 -10 17 -2 62 -6 100 -10 39 -4 73 -10 77 -13 7 -7 13 -61 23
-212 3 -47 8 -110 10 -140 9 -123 15 -200 20 -290 3 -52 8 -115 10 -140 4 -41
12 -162 20 -285 7 -110 17 -242 20 -275 2 -19 7 -87 10 -150 4 -63 9 -118 12
-122 2 -5 -996 -8 -2217 -8 l-2222 0 7 103 c3 56 8 118 9 137 2 19 7 82 11
140 3 58 8 121 10 140 2 19 6 82 10 140 4 58 8 121 10 140 1 19 6 80 10 135 3
55 8 120 10 145 2 25 6 88 10 140 3 52 8 113 10 135 7 87 18 231 19 250 1 21
16 24 201 40 44 4 82 8 85 10 3 2 43 6 90 9 47 4 103 9 125 11 22 3 72 7 110
10 120 9 199 16 235 20 19 2 85 7 145 11 61 3 128 7 150 9 22 2 94 6 160 10
66 4 140 9 165 11 25 1 164 6 310 10 146 3 266 7 267 8 1 1 28 1 60 0 32 -1
182 -5 333 -9z m-40 -1909 c19 -3 98 -7 175 -11 77 -4 163 -8 190 -10 57 -3
238 -14 365 -20 47 -3 128 -7 180 -11 52 -3 131 -7 175 -9 148 -7 289 -15 355
-20 36 -2 124 -7 195 -11 72 -4 146 -8 165 -9 19 -1 55 -3 79 -4 l44 -1 -7
-237 c-7 -254 -8 -279 -32 -523 -9 -98 -35 -285 -48 -345 -2 -11 -7 -40 -12
-65 -4 -25 -8 -47 -9 -50 -1 -3 -7 -32 -14 -65 -18 -85 -96 -360 -127 -447
-91 -254 -178 -431 -347 -703 -150 -243 -408 -517 -687 -730 -35 -28 -69 -54
-75 -58 -46 -37 -225 -155 -340 -224 -129 -78 -449 -242 -503 -258 -26 -7 -63
8 -262 107 -355 176 -755 454 -985 683 -409 410 -689 912 -840 1510 -29 118
-71 317 -80 390 -2 11 -6 38 -9 60 -12 83 -16 112 -21 170 -3 33 -7 78 -10
100 -10 89 -14 136 -20 275 -10 214 -12 400 -5 405 6 4 95 10 470 30 52 3 129
7 170 10 91 5 257 14 365 20 44 2 127 7 185 10 163 9 224 13 370 20 74 4 154
8 177 10 23 2 106 7 185 10 79 4 145 9 147 11 5 5 393 -4 441 -10z"/>
<path d="M3097 6204 c-1 -1 -36 -4 -77 -8 -41 -3 -84 -8 -95 -10 -12 -2 -48
-7 -80 -11 -33 -4 -67 -9 -75 -10 -8 -2 -44 -6 -80 -10 -36 -4 -74 -9 -85 -11
-36 -7 -148 -15 -237 -17 l-87 -2 0 -75 c0 -41 0 -105 0 -142 l-1 -68 -45 0
c-55 0 -61 -11 -57 -104 l4 -66 49 0 c55 0 50 10 50 -110 0 -132 5 -120 -51
-120 l-50 0 0 -85 0 -85 50 0 c58 0 52 23 51 -187 0 -99 3 -131 12 -128 7 2
73 6 147 9 74 3 162 10 195 16 33 5 79 12 101 14 23 3 83 12 135 21 204 33
353 37 442 11 70 -20 169 -20 227 0 51 18 165 22 285 10 44 -4 82 -9 85 -11 3
-1 30 -6 61 -9 31 -4 67 -9 80 -11 19 -4 87 -13 214 -30 107 -14 292 -22 301
-12 3 3 6 73 6 156 l-1 150 52 3 52 3 1 82 1 82 -51 3 -51 3 -2 113 -2 112 52
0 53 0 -2 73 c-1 39 -2 77 -3 83 0 6 -18 11 -38 11 -21 0 -44 1 -51 2 -9 1
-12 32 -11 124 0 67 0 131 0 143 -1 19 -7 21 -105 23 -58 1 -113 3 -123 5 -10
2 -52 7 -93 11 -41 4 -84 9 -95 11 -11 2 -56 8 -100 14 -44 6 -96 12 -115 15
-208 28 -333 25 -461 -11 -52 -15 -62 -15 -106 -1 -26 9 -65 19 -85 23 -34 6
-186 12 -191 8z m202 -154 l53 -13 -6 -241 c-9 -380 -17 -600 -21 -612 -2 -8
-21 -8 -62 -2 -63 9 -178 4 -338 -16 -27 -3 -59 -8 -70 -10 -11 -2 -42 -7 -70
-10 -45 -6 -81 -12 -140 -22 -11 -2 -56 -7 -100 -10 -44 -3 -83 -8 -87 -10
-21 -13 -22 17 -13 256 8 224 18 511 19 564 2 70 3 71 122 80 43 3 90 8 103
11 13 2 49 7 80 11 31 3 58 8 61 9 3 2 32 6 65 10 33 3 85 10 115 14 81 10
227 6 289 -9z m542 5 c41 -3 81 -8 89 -10 14 -4 44 -8 143 -20 23 -3 53 -8 67
-10 14 -3 48 -7 75 -9 108 -11 160 -18 163 -20 3 -4 12 -226 28 -698 l6 -187
-33 4 c-19 2 -56 6 -84 9 -104 11 -150 17 -165 21 -8 2 -37 7 -65 10 -27 3
-75 10 -105 16 -131 22 -317 29 -397 15 l-43 -8 -1 84 c-1 45 -2 110 -4 143
-4 87 -17 499 -19 574 -1 59 1 64 24 73 53 21 178 26 321 13z"/>
<path d="M3098 5935 c-2 -1 -46 -6 -98 -10 -52 -4 -97 -9 -99 -11 -3 -2 -5
-29 -6 -60 l-1 -56 45 6 c26 3 98 9 161 12 63 4 116 8 118 9 5 4 5 96 0 101
-5 5 -115 13 -120 9z"/>
<path d="M2759 5896 c-2 -2 -31 -7 -64 -11 -108 -11 -100 -5 -103 -69 l-3 -58
58 6 c32 4 72 9 88 12 17 3 39 6 49 8 25 3 33 26 28 76 -3 34 -8 40 -26 40
-13 0 -25 -2 -27 -4z"/>
<path d="M2964 5663 c-89 -11 -168 -22 -169 -23 -1 0 -1 -25 -1 -56 l0 -56 50
7 c28 4 62 8 76 10 69 10 181 19 233 19 40 0 57 4 58 13 0 7 1 29 1 48 0 19
-1 39 -1 44 -1 12 -127 9 -247 -6z"/>
<path d="M2659 5625 c-3 -2 -21 -5 -42 -7 -29 -2 -37 -6 -38 -23 0 -11 -2 -37
-3 -57 l-2 -38 61 6 c33 4 63 8 68 11 4 2 7 29 7 59 0 50 -2 54 -23 54 -13 0
-26 -2 -28 -5z"/>
<path d="M3027 5414 c-3 -3 -88 -13 -113 -13 -18 -1 -20 -7 -18 -53 1 -29 3
-56 3 -59 1 -3 29 -2 64 3 34 5 99 10 145 13 46 2 85 5 87 7 3 3 8 73 6 96 -1
10 -22 12 -86 10 -47 -1 -87 -3 -88 -4z"/>
<path d="M2685 5369 c-60 -10 -111 -18 -112 -18 -2 -1 -3 -26 -3 -56 l0 -56
56 6 c30 4 63 8 72 10 9 1 40 6 69 10 50 7 51 7 48 38 -2 18 -4 44 -4 60 -1
15 -4 26 -8 26 -5 -1 -57 -10 -118 -20z"/>
<path d="M3653 5932 c-13 -2 -24 -9 -24 -15 -2 -21 0 -90 3 -92 2 -1 55 -5
119 -8 64 -3 120 -7 125 -8 24 -4 29 5 28 51 0 27 -3 52 -6 55 -9 9 -208 23
-245 17z"/>
<path d="M3989 5868 c-1 -40 1 -71 4 -74 1 -1 25 -4 52 -8 28 -3 73 -9 100
-13 28 -3 66 -7 85 -7 l35 -1 -2 45 c0 25 -1 48 -2 52 -1 7 -32 14 -96 24 -22
3 -67 9 -100 15 -33 5 -63 9 -67 9 -5 0 -9 -19 -9 -42z"/>
<path d="M3639 5676 c-4 -3 -3 -106 1 -107 3 -1 37 -3 75 -4 39 -2 91 -6 118
-8 l47 -5 0 54 c0 35 -5 56 -12 59 -11 3 -225 14 -229 11z"/>
<path d="M3964 5600 c1 -33 6 -60 11 -61 6 0 17 -2 25 -3 8 -2 40 -6 70 -10
30 -3 66 -8 80 -10 14 -2 46 -7 73 -11 l47 -6 0 60 c0 34 -3 60 -7 59 -8 -2
-120 11 -157 18 -10 2 -44 6 -75 10 -31 3 -59 8 -62 10 -3 2 -5 -24 -5 -56z"/>
<path d="M3648 5414 c-2 -5 -3 -30 0 -56 l4 -48 57 -1 c31 0 83 -3 116 -7 33
-3 78 -6 100 -7 l40 0 0 50 c0 48 -1 49 -35 57 -55 13 -276 22 -282 12z"/>
<path d="M4050 5331 l0 -59 58 -7 c31 -4 66 -9 77 -10 11 -2 38 -6 61 -8 l41
-6 -4 57 c-3 31 -5 58 -6 58 -1 1 -24 5 -52 8 -27 4 -61 9 -75 11 -14 3 -42 7
-62 10 l-38 4 0 -58z"/>
<path d="M3391 4398 c-36 -118 -180 -569 -199 -623 l-17 -50 -375 -1 c-206 -1
-386 -2 -398 -3 -18 -1 41 -48 220 -177 133 -97 268 -195 298 -218 31 -23 67
-48 80 -57 l24 -16 -22 -69 c-12 -38 -67 -206 -122 -373 -55 -168 -98 -307
-95 -309 2 -2 144 98 315 222 172 125 316 228 320 229 5 1 133 -88 285 -198
262 -190 357 -256 361 -252 1 1 -13 47 -31 102 -96 289 -205 629 -205 639 0 6
142 114 315 240 173 125 315 231 315 235 0 3 -177 6 -394 6 l-393 -1 -26 76
c-14 41 -69 209 -122 373 -53 163 -100 297 -104 297 -4 0 -17 -33 -30 -72z
m182 -805 c7 -6 61 -14 127 -18 145 -8 254 -15 256 -18 2 -1 -65 -58 -147
-126 -103 -85 -148 -129 -145 -140 18 -63 86 -341 86 -349 0 -7 -69 32 -152
85 -84 53 -159 98 -168 100 -8 2 -86 -41 -173 -97 -88 -55 -160 -100 -162
-100 -1 0 16 73 40 163 23 89 45 174 48 188 6 24 -3 35 -111 122 -64 52 -133
109 -152 126 l-35 31 50 1 c28 1 64 2 80 4 17 1 80 5 140 9 61 4 115 13 122
19 6 7 42 90 79 184 l68 173 69 -173 c38 -94 74 -177 80 -184z"/>
<path d="M1952 4307 c-150 -144 -185 -195 -221 -325 -14 -50 -19 -96 -17 -147
3 -82 4 -81 -64 -35 -25 17 -93 46 -142 60 -26 8 -26 7 -38 -58 -49 -278 92
-528 349 -618 l65 -23 17 -60 c9 -34 14 -61 12 -61 -2 0 -14 6 -26 14 -37 24
-139 54 -208 61 l-66 7 4 -78 c9 -165 56 -269 173 -382 79 -76 185 -125 305
-140 58 -7 59 -8 86 -57 35 -64 35 -65 -3 -54 -67 20 -198 27 -252 13 -28 -7
-28 -9 -1 -104 53 -185 199 -326 389 -376 26 -7 93 -12 147 -12 98 1 99 1 121
-28 12 -16 28 -35 35 -42 7 -7 13 -15 13 -17 0 -2 -28 -4 -62 -3 -35 1 -79 -2
-98 -6 -66 -13 -140 -39 -140 -48 0 -5 16 -40 36 -79 68 -136 205 -244 358
-283 70 -18 190 -14 261 8 61 19 80 20 97 3 7 -7 58 -46 113 -87 55 -40 104
-76 109 -81 4 -4 -28 -32 -73 -62 l-81 -54 51 -31 c57 -36 53 -37 148 29 31
22 61 39 67 39 6 0 43 -23 83 -50 l73 -50 54 31 55 31 -77 52 c-42 29 -75 57
-73 62 1 5 31 29 65 54 34 25 88 65 119 89 l56 44 72 -18 c225 -59 435 11 571
189 37 49 86 140 86 162 0 20 -122 48 -212 49 -54 0 -84 4 -80 10 20 32 71 93
75 89 10 -10 186 -5 233 7 181 44 329 185 388 369 29 91 29 107 4 113 -35 10
-209 1 -241 -12 -46 -18 -49 -13 -21 42 15 28 28 53 29 55 3 4 33 9 94 17 105
13 199 62 287 150 107 106 151 208 157 362 l4 82 -56 -5 c-77 -8 -127 -21
-185 -50 -27 -14 -50 -23 -52 -22 -1 2 3 28 10 58 l12 55 70 26 c267 99 404
339 354 620 l-12 67 -59 -18 c-52 -16 -82 -31 -156 -78 -23 -14 -23 -14 -20
47 6 101 -10 178 -53 266 -22 44 -54 96 -72 117 -34 37 -128 118 -138 118 -12
0 -80 -147 -94 -202 -8 -31 -14 -94 -14 -140 2 -144 50 -258 153 -364 l60 -62
-20 -65 -21 -65 -29 56 c-28 53 -157 202 -175 202 -12 0 -90 -126 -107 -174
-23 -64 -25 -75 -29 -167 -6 -153 49 -294 157 -400 21 -21 34 -40 29 -45 -5
-5 -22 -36 -39 -69 -17 -33 -30 -52 -31 -42 -1 58 -100 257 -140 282 -16 10
-114 -97 -154 -170 -54 -96 -82 -251 -62 -340 3 -16 8 -39 10 -50 7 -35 39
-109 70 -158 l29 -48 -30 -32 c-16 -18 -39 -42 -49 -54 l-20 -22 -2 61 c-3 85
-52 234 -82 253 -15 9 -118 -64 -174 -122 -50 -52 -120 -184 -132 -248 -20
-104 -5 -234 40 -336 5 -13 -8 -29 -55 -64 -39 -30 -59 -40 -55 -29 26 64 4
314 -27 314 -20 -1 -129 -53 -177 -85 -63 -41 -145 -137 -179 -209 -40 -84
-55 -170 -48 -272 6 -82 5 -85 -19 -101 -21 -13 -29 -14 -48 -3 -22 11 -23 17
-22 119 2 156 -15 217 -87 325 -61 90 -140 155 -245 199 -35 15 -67 27 -72 27
-27 0 -52 -221 -32 -292 6 -21 7 -38 2 -38 -5 0 -10 4 -12 8 -2 6 -87 75 -95
77 -1 1 9 33 23 73 80 232 -8 485 -219 626 -32 20 -62 34 -68 31 -30 -19 -80
-177 -82 -265 l-2 -51 -18 23 c-11 13 -32 38 -49 56 l-30 34 30 48 c79 126
100 258 68 425 -11 57 -75 171 -132 233 -31 34 -61 62 -68 62 -11 -1 -64 -73
-94 -129 -8 -14 -24 -57 -36 -95 l-22 -68 -33 66 -34 66 38 38 c106 105 156
235 151 395 -3 67 -10 109 -28 157 -25 67 -91 180 -106 180 -22 0 -144 -135
-173 -191 l-31 -62 -22 64 -22 64 36 35 c122 119 176 239 178 392 1 117 -30
224 -90 311 -21 30 -27 32 -46 14z m17 -217 c20 -69 15 -169 -13 -244 -24 -66
-86 -160 -97 -148 -27 29 -41 176 -24 253 15 69 99 210 114 192 4 -4 13 -28
20 -53z m2994 -29 c33 -60 58 -153 56 -211 -1 -46 -28 -160 -37 -160 -16 0
-76 96 -99 160 -24 67 -27 184 -6 254 l14 48 23 -21 c13 -12 35 -44 49 -70z
m-3300 -405 c78 -63 147 -203 147 -301 0 -25 -3 -45 -6 -45 -14 0 -94 62 -127
100 -61 66 -106 183 -107 272 l0 38 28 -18 c16 -9 45 -30 65 -46z m3593 -80
c-28 -96 -81 -174 -156 -228 -63 -46 -69 -44 -64 19 11 134 84 258 192 327
l37 23 3 -44 c2 -24 -4 -68 -12 -97z m-3123 -142 c37 -116 6 -281 -70 -373
l-20 -24 -18 44 c-38 92 -26 253 25 343 52 93 57 94 83 10z m2624 49 c52 -66
90 -186 86 -271 -2 -57 -28 -158 -42 -166 -12 -8 -65 78 -86 139 -25 72 -26
177 -3 253 10 34 21 62 25 62 3 0 12 -8 20 -17z m-2940 -519 c91 -44 180 -142
210 -234 25 -76 25 -80 8 -80 -30 0 -123 50 -162 88 -45 43 -103 124 -103 145
0 7 -3 17 -7 21 -4 4 -13 25 -19 47 -15 48 -6 50 73 13z m3277 -26 c-39 -133
-160 -258 -273 -283 -31 -7 -32 -6 -26 26 10 58 59 142 115 199 53 54 145 110
181 110 17 0 17 -3 3 -52z m-2748 -123 c32 -65 37 -85 41 -162 3 -73 0 -99
-19 -152 -13 -36 -28 -66 -33 -68 -14 -4 -73 113 -82 163 -13 72 -6 176 17
237 12 31 25 57 30 57 5 0 25 -34 46 -75z m2225 18 c43 -115 24 -279 -45 -372
-23 -31 -25 -32 -35 -13 -19 36 -41 135 -41 187 0 28 7 78 16 110 16 62 58
145 74 145 5 0 18 -26 31 -57z m-1914 -530 c20 -21 52 -72 72 -113 33 -70 36
-82 35 -170 0 -52 -5 -103 -10 -113 -10 -17 -14 -15 -48 25 -21 23 -49 65 -63
92 -27 52 -54 163 -48 199 2 12 6 43 10 70 3 26 9 47 11 47 3 0 21 -17 41 -37z
m1579 -10 c21 -143 -10 -256 -101 -361 -38 -43 -46 -46 -52 -14 -22 106 -6
216 45 304 28 49 82 117 94 118 4 0 10 -21 14 -47z m-2075 1 c59 -19 134 -66
176 -112 36 -39 88 -130 79 -139 -9 -9 -111 18 -165 44 -69 34 -151 114 -185
180 l-26 52 38 -6 c20 -2 58 -11 83 -19z m2629 16 c0 -6 -7 -25 -16 -43 -58
-113 -184 -203 -312 -222 -52 -7 -54 3 -11 71 61 97 159 166 269 190 71 16 70
16 70 4z m-991 -497 c-6 -138 -70 -261 -176 -334 -31 -22 -42 -25 -46 -15 -7
19 0 103 12 144 13 44 64 133 94 166 22 23 107 94 115 95 2 1 2 -25 1 -56z
m-704 16 c101 -72 161 -186 170 -324 2 -22 1 -43 -2 -48 -9 -15 -96 57 -139
115 -25 34 -52 87 -62 121 -19 61 -29 167 -17 167 4 0 26 -14 50 -31z m-427
-114 c87 -26 132 -53 196 -118 68 -70 64 -77 -41 -71 -76 5 -142 26 -208 69
-46 29 -125 108 -125 125 0 14 124 10 178 -5z m1682 5 c0 -20 -88 -105 -142
-138 -56 -33 -160 -61 -213 -57 -16 2 -38 3 -48 4 -21 1 -13 20 30 67 51 55
117 95 193 118 57 17 180 21 180 6z"/>
</g>
</svg>
