<svg xmlns="http://www.w3.org/2000/svg" viewBox="0 0 82.061 112.09"><defs><style>.a,.b{fill:none;stroke:#bf5700;stroke-linecap:round;stroke-linejoin:round;}.a{stroke-width:5px;}.b{stroke-width:2.9px;}</style></defs><g transform="translate(2.521 2.667)"><path class="a" d="M56.171,52.8H37V35.185a9.585,9.585,0,1,1,19.171,0Z" transform="translate(1.509 1.185)"/><path class="a" d="M73.488,55.549H54.206V12.3a9.7,9.7,0,1,1,19.282,0Z" transform="translate(3.474 -1.569)"/><path class="a" d="M38.971,52.8H19.8V35.185a9.585,9.585,0,0,1,19.171,0Z" transform="translate(-0.462 1.185)"/><path class="a" d="M56.171,52.8H37V35.185a9.585,9.585,0,1,1,19.171,0Z" transform="translate(1.509 1.185)"/><path class="a" d="M21.788,55.549V12.3a9.7,9.7,0,1,0-19.282,0V85.866c0,14.824,11.369,22.626,24.521,22.626H55c13.486,0,24.409-7.914,24.409-22.626V55.549Z" transform="translate(-2.45 -1.569)"/><path class="b" d="M73.488,55.549H54.206V12.3a9.7,9.7,0,1,1,19.282,0Z" transform="translate(3.474 -1.569)"/><path class="a" d="M38.971,52.8H19.8V35.185a9.585,9.585,0,0,1,19.171,0Z" transform="translate(-0.462 1.185)"/><path class="a" d="M36.683,102.943S33.005,88.007,52.064,74.855C19.184,74.855,13.5,63.486,13.5,53.9V50H78.146V80.317c0,14.712-10.923,22.626-24.409,22.626Z" transform="translate(-1.184 3.981)"/></g></svg>