<svg xmlns="http://www.w3.org/2000/svg" viewBox="0 0 132.68 132.68"><defs><style>.a{fill:#bf5700;}</style></defs><path class="a" d="M100.846,133.68a3.886,3.886,0,0,1-1.2-.265L75.064,123.331A3.1,3.1,0,0,1,73.47,122L57.124,96.264l-6.778-.531-4.917,6.9a3.385,3.385,0,0,1-4.518.929l-5.05-3.317L23.768,95.866a3.482,3.482,0,0,1-2.126-2.388L18.187,76.495.778,55.531a3.459,3.459,0,0,1-.4-3.582A3.055,3.055,0,0,1,3.3,50.092H33.6V4.317A3.287,3.287,0,0,1,36.924,1H73.337a3.287,3.287,0,0,1,3.322,3.317V29.261L125.7,36.293a3.3,3.3,0,0,1,2.791,3.317V53.143l3.189,2.919a3.32,3.32,0,0,1,1.063,2.388V81.271a3.622,3.622,0,0,1-1.063,2.521L103.5,108.736l.664,21.494a3.284,3.284,0,0,1-1.462,2.786A3.178,3.178,0,0,1,100.846,133.68ZM78.387,117.626l18.871,7.7-.664-18.044a3.941,3.941,0,0,1,1.063-2.654l28.572-24.811V59.91l-3.189-2.919a3.32,3.32,0,0,1-1.063-2.388V42.529L72.938,35.5a3.3,3.3,0,0,1-2.791-3.317V7.634h-29.9V53.409a3.287,3.287,0,0,1-3.322,3.317H10.346L23.768,72.913a2.943,2.943,0,0,1,.664,1.459l3.322,15.922,10.764,3.848c.266.133.4.133.664.265l2.658,1.725,4.253-5.838a3.249,3.249,0,0,1,2.924-1.327l10.366.929a3.283,3.283,0,0,1,2.525,1.592Z" transform="translate(-0.06 -1)"/><path class="a" d="M72.7,45.329S67.4,39.063,61.069,39.063s-8.669,6.352-6.436,12.5S72.7,69.011,72.7,69.011s14.335-9.962,17.124-17.449c2.817-6.626.766-12.5-5.968-12.5S72.7,45.329,72.7,45.329Z" transform="translate(19.01 21.325)"/></svg>